<?xml version="1.0" encoding="UTF-8"?>
<svg xmlns="http://www.w3.org/2000/svg" xmlns:xlink="http://www.w3.org/1999/xlink" width="176px" height="40px" viewBox="0 0 177 40" version="1.1">
<defs>
<filter id="alpha" filterUnits="objectBoundingBox" x="0%" y="0%" width="100%" height="100%">
  <feColorMatrix type="matrix" in="SourceGraphic" values="0 0 0 0 1 0 0 0 0 1 0 0 0 0 1 0 0 0 1 0"/>
</filter>
<mask id="mask0">
  <g filter="url(#alpha)">
<rect x="0" y="0" width="177" height="40" style="fill:rgb(0%,0%,0%);fill-opacity:0.760784;stroke:none;"/>
  </g>
</mask>
<clipPath id="clip1">
  <rect x="0" y="0" width="177" height="40"/>
</clipPath>
<g id="surface5" clip-path="url(#clip1)">
<path style=" stroke:none;fill-rule:evenodd;fill:rgb(23.529412%,23.529412%,23.529412%);fill-opacity:1;" d="M 126.824219 28.609375 C 126.824219 21.6875 126.824219 14.769531 126.824219 7.847656 C 125.984375 7.847656 125.144531 7.847656 124.304688 7.847656 C 124.46875 10.90625 124.300781 13.941406 123.800781 16.960938 C 123.398438 16.730469 123.230469 16.394531 123.292969 15.949219 C 123.792969 13.175781 123.960938 10.308594 123.800781 7.339844 C 124.976562 7.339844 126.152344 7.339844 127.328125 7.339844 C 127.496094 14.519531 127.328125 21.609375 126.824219 28.609375 Z M 126.824219 28.609375 "/>
</g>
<mask id="mask1">
  <g filter="url(#alpha)">
<rect x="0" y="0" width="177" height="40" style="fill:rgb(0%,0%,0%);fill-opacity:0.0941176;stroke:none;"/>
  </g>
</mask>
<clipPath id="clip2">
  <rect x="0" y="0" width="177" height="40"/>
</clipPath>
<g id="surface8" clip-path="url(#clip2)">
<path style=" stroke:none;fill-rule:evenodd;fill:rgb(86.666667%,86.666667%,86.666667%);fill-opacity:1;" d="M 103.125 8.859375 C 101.886719 8.757812 100.710938 8.925781 99.59375 9.367188 C 99.921875 8.746094 100.511719 8.410156 101.359375 8.355469 C 102.058594 8.363281 102.644531 8.53125 103.125 8.859375 Z M 103.125 8.859375 "/>
</g>
<mask id="mask2">
  <g filter="url(#alpha)">
<rect x="0" y="0" width="177" height="40" style="fill:rgb(0%,0%,0%);fill-opacity:0.596078;stroke:none;"/>
  </g>
</mask>
<clipPath id="clip3">
  <rect x="0" y="0" width="177" height="40"/>
</clipPath>
<g id="surface11" clip-path="url(#clip3)">
<path style=" stroke:none;fill-rule:evenodd;fill:rgb(40.784314%,40.784314%,40.784314%);fill-opacity:1;" d="M 58.746094 8.859375 C 58.914062 8.859375 59.085938 8.859375 59.253906 8.859375 C 59.335938 13.757812 59.253906 18.652344 59 23.542969 C 58.636719 23.269531 58.386719 22.929688 58.242188 22.53125 C 58.746094 18.066406 58.914062 13.511719 58.746094 8.859375 Z M 58.746094 8.859375 "/>
</g>
<mask id="mask3">
  <g filter="url(#alpha)">
<rect x="0" y="0" width="177" height="40" style="fill:rgb(0%,0%,0%);fill-opacity:0.341176;stroke:none;"/>
  </g>
</mask>
<clipPath id="clip4">
  <rect x="0" y="0" width="177" height="40"/>
</clipPath>
<g id="surface14" clip-path="url(#clip4)">
<path style=" stroke:none;fill-rule:evenodd;fill:rgb(69.411765%,69.411765%,69.411765%);fill-opacity:1;" d="M 58.746094 8.859375 C 59.980469 8.367188 61.328125 8.199219 62.78125 8.355469 C 62.949219 15.195312 62.78125 21.945312 62.277344 28.609375 C 62.277344 22.023438 62.277344 15.441406 62.277344 8.859375 C 61.269531 8.859375 60.261719 8.859375 59.253906 8.859375 C 59.085938 8.859375 58.914062 8.859375 58.746094 8.859375 Z M 58.746094 8.859375 "/>
</g>
<mask id="mask4">
  <g filter="url(#alpha)">
<rect x="0" y="0" width="177" height="40" style="fill:rgb(0%,0%,0%);fill-opacity:0.0666667;stroke:none;"/>
  </g>
</mask>
<clipPath id="clip5">
  <rect x="0" y="0" width="177" height="40"/>
</clipPath>
<g id="surface17" clip-path="url(#clip5)">
<path style=" stroke:none;fill-rule:evenodd;fill:rgb(93.333333%,94.117647%,98.823529%);fill-opacity:1;" d="M 27.484375 35.191406 C 27.652344 34.851562 27.820312 34.515625 27.988281 34.175781 C 28.949219 33.886719 29.792969 33.378906 30.507812 32.660156 C 31.792969 32.046875 32.464844 31.035156 32.527344 29.621094 C 32.527344 29.28125 32.527344 28.945312 32.527344 28.609375 C 32.835938 28.550781 33.089844 28.382812 33.28125 28.101562 C 33.617188 22.023438 33.617188 15.949219 33.28125 9.875 C 32.902344 8.953125 32.480469 8.109375 32.019531 7.339844 C 30.886719 5.613281 29.375 4.347656 27.484375 3.542969 C 21.433594 3.292969 15.382812 3.207031 9.328125 3.292969 C 7.417969 3.195312 5.90625 3.871094 4.789062 5.316406 C 2.980469 6.292969 1.972656 7.8125 1.765625 9.875 C 1.679688 16.121094 1.765625 22.363281 2.015625 28.609375 C 2.367188 30.367188 3.292969 31.714844 4.789062 32.660156 C 5.382812 33.691406 6.222656 34.367188 7.3125 34.683594 C 7.3125 34.851562 7.3125 35.019531 7.3125 35.191406 C 4.792969 34.78125 2.859375 33.429688 1.511719 31.140625 C 1.09375 23.03125 1.175781 14.929688 1.765625 6.835938 C 2.941406 5.652344 4.117188 4.472656 5.292969 3.292969 C 13.359375 2.699219 21.425781 2.617188 29.5 3.039062 C 30.921875 4.210938 32.265625 5.476562 33.535156 6.835938 C 34.121094 14.929688 34.207031 23.03125 33.785156 31.140625 C 32.375 33.667969 30.273438 35.019531 27.484375 35.191406 Z M 27.484375 35.191406 "/>
</g>
<mask id="mask5">
  <g filter="url(#alpha)">
<rect x="0" y="0" width="177" height="40" style="fill:rgb(0%,0%,0%);fill-opacity:0.890196;stroke:none;"/>
  </g>
</mask>
<clipPath id="clip6">
  <rect x="0" y="0" width="177" height="40"/>
</clipPath>
<g id="surface20" clip-path="url(#clip6)">
<path style=" stroke:none;fill-rule:evenodd;fill:rgb(47.45098%,51.372549%,90.980392%);fill-opacity:1;" d="M 4.789062 5.316406 C 3.976562 6.976562 2.96875 8.496094 1.765625 9.875 C 1.972656 7.8125 2.980469 6.292969 4.789062 5.316406 Z M 4.789062 5.316406 "/>
</g>
<mask id="mask6">
  <g filter="url(#alpha)">
<rect x="0" y="0" width="177" height="40" style="fill:rgb(0%,0%,0%);fill-opacity:0.905882;stroke:none;"/>
  </g>
</mask>
<clipPath id="clip7">
  <rect x="0" y="0" width="177" height="40"/>
</clipPath>
<g id="surface23" clip-path="url(#clip7)">
<path style=" stroke:none;fill-rule:evenodd;fill:rgb(45.098039%,49.019608%,90.980392%);fill-opacity:1;" d="M 9.328125 3.292969 C 8.035156 4.359375 6.523438 5.035156 4.789062 5.316406 C 5.90625 3.871094 7.417969 3.195312 9.328125 3.292969 Z M 9.328125 3.292969 "/>
</g>
<mask id="mask7">
  <g filter="url(#alpha)">
<rect x="0" y="0" width="177" height="40" style="fill:rgb(0%,0%,0%);fill-opacity:0.639216;stroke:none;"/>
  </g>
</mask>
<clipPath id="clip8">
  <rect x="0" y="0" width="177" height="40"/>
</clipPath>
<g id="surface26" clip-path="url(#clip8)">
<path style=" stroke:none;fill-rule:evenodd;fill:rgb(50.196078%,54.901961%,91.764706%);fill-opacity:1;" d="M 32.019531 7.339844 C 32.480469 8.109375 32.902344 8.953125 33.28125 9.875 C 33.617188 15.949219 33.617188 22.023438 33.28125 28.101562 C 33.089844 28.382812 32.835938 28.550781 32.527344 28.609375 C 33.3125 21.449219 33.144531 14.363281 32.019531 7.339844 Z M 32.019531 7.339844 "/>
</g>
<mask id="mask8">
  <g filter="url(#alpha)">
<rect x="0" y="0" width="177" height="40" style="fill:rgb(0%,0%,0%);fill-opacity:0.572549;stroke:none;"/>
  </g>
</mask>
<clipPath id="clip9">
  <rect x="0" y="0" width="177" height="40"/>
</clipPath>
<g id="surface29" clip-path="url(#clip9)">
<path style=" stroke:none;fill-rule:evenodd;fill:rgb(49.411765%,49.411765%,49.411765%);fill-opacity:1;" d="M 51.6875 12.40625 C 52.398438 12.644531 52.734375 13.152344 52.695312 13.925781 C 51.988281 13.683594 51.652344 13.179688 51.6875 12.40625 Z M 51.6875 12.40625 "/>
</g>
<mask id="mask9">
  <g filter="url(#alpha)">
<rect x="0" y="0" width="177" height="40" style="fill:rgb(0%,0%,0%);fill-opacity:0.0627451;stroke:none;"/>
  </g>
</mask>
<clipPath id="clip10">
  <rect x="0" y="0" width="177" height="40"/>
</clipPath>
<g id="surface32" clip-path="url(#clip10)">
<path style=" stroke:none;fill-rule:evenodd;fill:rgb(91.764706%,91.764706%,91.764706%);fill-opacity:1;" d="M 49.167969 14.9375 C 48.832031 19.492188 48.496094 24.050781 48.15625 28.609375 C 48.074219 23.542969 48.160156 18.476562 48.410156 13.417969 C 48.667969 13.9375 48.921875 14.445312 49.167969 14.9375 Z M 49.167969 14.9375 "/>
</g>
<mask id="mask10">
  <g filter="url(#alpha)">
<rect x="0" y="0" width="177" height="40" style="fill:rgb(0%,0%,0%);fill-opacity:0.533333;stroke:none;"/>
  </g>
</mask>
<clipPath id="clip11">
  <rect x="0" y="0" width="177" height="40"/>
</clipPath>
<g id="surface35" clip-path="url(#clip11)">
<path style=" stroke:none;fill-rule:evenodd;fill:rgb(52.54902%,52.54902%,52.54902%);fill-opacity:1;" d="M 52.695312 13.925781 C 53.40625 14.164062 53.742188 14.671875 53.707031 15.441406 C 52.996094 15.203125 52.660156 14.695312 52.695312 13.925781 Z M 52.695312 13.925781 "/>
</g>
<mask id="mask11">
  <g filter="url(#alpha)">
<rect x="0" y="0" width="177" height="40" style="fill:rgb(0%,0%,0%);fill-opacity:0.0156863;stroke:none;"/>
  </g>
</mask>
<clipPath id="clip12">
  <rect x="0" y="0" width="177" height="40"/>
</clipPath>
<g id="surface38" clip-path="url(#clip12)">
<path style=" stroke:none;fill-rule:evenodd;fill:rgb(90.588235%,90.588235%,90.588235%);fill-opacity:1;" d="M 134.894531 15.949219 C 134.144531 17.308594 133.804688 17.140625 133.882812 15.441406 C 132.875 15.441406 131.867188 15.441406 130.859375 15.441406 C 130.859375 19.832031 130.859375 24.21875 130.859375 28.609375 C 130.359375 24.144531 130.191406 19.585938 130.355469 14.9375 C 132.046875 14.730469 133.558594 15.066406 134.894531 15.949219 Z M 134.894531 15.949219 "/>
</g>
<mask id="mask12">
  <g filter="url(#alpha)">
<rect x="0" y="0" width="177" height="40" style="fill:rgb(0%,0%,0%);fill-opacity:0.490196;stroke:none;"/>
  </g>
</mask>
<clipPath id="clip13">
  <rect x="0" y="0" width="177" height="40"/>
</clipPath>
<g id="surface41" clip-path="url(#clip13)">
<path style=" stroke:none;fill-rule:evenodd;fill:rgb(61.568627%,61.568627%,61.568627%);fill-opacity:1;" d="M 70.347656 24.558594 C 69.847656 21.613281 69.679688 18.578125 69.84375 15.441406 C 68.832031 15.441406 67.824219 15.441406 66.816406 15.441406 C 66.816406 18.820312 66.816406 22.195312 66.816406 25.570312 C 66.316406 22.121094 66.148438 18.574219 66.3125 14.9375 C 67.65625 14.9375 69 14.9375 70.347656 14.9375 C 70.347656 18.144531 70.347656 21.351562 70.347656 24.558594 Z M 70.347656 24.558594 "/>
</g>
<mask id="mask13">
  <g filter="url(#alpha)">
<rect x="0" y="0" width="177" height="40" style="fill:rgb(0%,0%,0%);fill-opacity:0.670588;stroke:none;"/>
  </g>
</mask>
<clipPath id="clip14">
  <rect x="0" y="0" width="177" height="40"/>
</clipPath>
<g id="surface44" clip-path="url(#clip14)">
<path style=" stroke:none;fill-rule:evenodd;fill:rgb(36.078431%,36.078431%,36.078431%);fill-opacity:1;" d="M 75.390625 15.441406 C 76.453125 14.953125 77.628906 14.785156 78.917969 14.9375 C 79.082031 19.585938 78.914062 24.144531 78.414062 28.609375 C 78.414062 24.21875 78.414062 19.832031 78.414062 15.441406 C 77.40625 15.441406 76.398438 15.441406 75.390625 15.441406 Z M 75.390625 15.441406 "/>
</g>
<mask id="mask14">
  <g filter="url(#alpha)">
<rect x="0" y="0" width="177" height="40" style="fill:rgb(0%,0%,0%);fill-opacity:0.733333;stroke:none;"/>
  </g>
</mask>
<clipPath id="clip15">
  <rect x="0" y="0" width="177" height="40"/>
</clipPath>
<g id="surface47" clip-path="url(#clip15)">
<path style=" stroke:none;fill-rule:evenodd;fill:rgb(30.196078%,30.196078%,30.196078%);fill-opacity:1;" d="M 86.484375 16.457031 C 86.453125 16.730469 86.285156 16.898438 85.980469 16.960938 C 85.53125 16.542969 85.363281 16.039062 85.472656 15.441406 C 84.632812 15.441406 83.792969 15.441406 82.953125 15.441406 C 82.953125 19.832031 82.953125 24.21875 82.953125 28.609375 C 82.453125 24.144531 82.285156 19.585938 82.449219 14.9375 C 83.625 14.9375 84.800781 14.9375 85.980469 14.9375 C 85.859375 15.589844 86.027344 16.097656 86.484375 16.457031 Z M 86.484375 16.457031 "/>
</g>
<mask id="mask15">
  <g filter="url(#alpha)">
<rect x="0" y="0" width="177" height="40" style="fill:rgb(0%,0%,0%);fill-opacity:0.627451;stroke:none;"/>
  </g>
</mask>
<clipPath id="clip16">
  <rect x="0" y="0" width="177" height="40"/>
</clipPath>
<g id="surface50" clip-path="url(#clip16)">
<path style=" stroke:none;fill-rule:evenodd;fill:rgb(39.607843%,39.607843%,39.607843%);fill-opacity:1;" d="M 158.59375 15.441406 C 157.585938 15.441406 156.578125 15.441406 155.570312 15.441406 C 155.570312 19.832031 155.570312 24.21875 155.570312 28.609375 C 155.066406 24.144531 154.898438 19.585938 155.0625 14.9375 C 156.355469 14.785156 157.53125 14.953125 158.59375 15.441406 Z M 158.59375 15.441406 "/>
</g>
<mask id="mask16">
  <g filter="url(#alpha)">
<rect x="0" y="0" width="177" height="40" style="fill:rgb(0%,0%,0%);fill-opacity:0.996078;stroke:none;"/>
  </g>
</mask>
<clipPath id="clip17">
  <rect x="0" y="0" width="177" height="40"/>
</clipPath>
<g id="surface53" clip-path="url(#clip17)">
<path style=" stroke:none;fill-rule:evenodd;fill:rgb(0%,0%,0%);fill-opacity:1;" d="M 158.59375 15.441406 C 158.59375 19.832031 158.59375 24.21875 158.59375 28.609375 C 157.585938 28.609375 156.578125 28.609375 155.570312 28.609375 C 155.570312 24.21875 155.570312 19.832031 155.570312 15.441406 C 156.578125 15.441406 157.585938 15.441406 158.59375 15.441406 Z M 158.59375 15.441406 "/>
</g>
<mask id="mask17">
  <g filter="url(#alpha)">
<rect x="0" y="0" width="177" height="40" style="fill:rgb(0%,0%,0%);fill-opacity:0.25098;stroke:none;"/>
  </g>
</mask>
<clipPath id="clip18">
  <rect x="0" y="0" width="177" height="40"/>
</clipPath>
<g id="surface56" clip-path="url(#clip18)">
<path style=" stroke:none;fill-rule:evenodd;fill:rgb(72.941176%,72.941176%,72.941176%);fill-opacity:1;" d="M 166.664062 15.949219 C 165.910156 17.308594 165.574219 17.140625 165.652344 15.441406 C 164.644531 15.441406 163.636719 15.441406 162.628906 15.441406 C 162.628906 19.832031 162.628906 24.21875 162.628906 28.609375 C 162.128906 24.144531 161.960938 19.585938 162.125 14.9375 C 163.816406 14.730469 165.328125 15.066406 166.664062 15.949219 Z M 166.664062 15.949219 "/>
</g>
<mask id="mask18">
  <g filter="url(#alpha)">
<rect x="0" y="0" width="177" height="40" style="fill:rgb(0%,0%,0%);fill-opacity:0.690196;stroke:none;"/>
  </g>
</mask>
<clipPath id="clip19">
  <rect x="0" y="0" width="177" height="40"/>
</clipPath>
<g id="surface59" clip-path="url(#clip19)">
<path style=" stroke:none;fill-rule:evenodd;fill:rgb(58.823529%,58.823529%,58.823529%);fill-opacity:1;" d="M 116.234375 15.441406 C 115.996094 16.15625 115.492188 16.492188 114.722656 16.457031 C 114.960938 15.742188 115.464844 15.40625 116.234375 15.441406 Z M 116.234375 15.441406 "/>
</g>
<mask id="mask19">
  <g filter="url(#alpha)">
<rect x="0" y="0" width="177" height="40" style="fill:rgb(0%,0%,0%);fill-opacity:0.490196;stroke:none;"/>
  </g>
</mask>
<clipPath id="clip20">
  <rect x="0" y="0" width="177" height="40"/>
</clipPath>
<g id="surface62" clip-path="url(#clip20)">
<path style=" stroke:none;fill-rule:evenodd;fill:rgb(56.078431%,56.078431%,56.078431%);fill-opacity:1;" d="M 53.707031 15.441406 C 54.414062 15.683594 54.75 16.1875 54.714844 16.960938 C 54.003906 16.722656 53.667969 16.214844 53.707031 15.441406 Z M 53.707031 15.441406 "/>
</g>
<mask id="mask20">
  <g filter="url(#alpha)">
<rect x="0" y="0" width="177" height="40" style="fill:rgb(0%,0%,0%);fill-opacity:0.439216;stroke:none;"/>
  </g>
</mask>
<clipPath id="clip21">
  <rect x="0" y="0" width="177" height="40"/>
</clipPath>
<g id="surface65" clip-path="url(#clip21)">
<path style=" stroke:none;fill-rule:evenodd;fill:rgb(63.137255%,63.137255%,63.137255%);fill-opacity:1;" d="M 114.722656 16.457031 C 114.757812 17.230469 114.421875 17.734375 113.714844 17.976562 C 113.675781 17.203125 114.011719 16.695312 114.722656 16.457031 Z M 114.722656 16.457031 "/>
</g>
<mask id="mask21">
  <g filter="url(#alpha)">
<rect x="0" y="0" width="177" height="40" style="fill:rgb(0%,0%,0%);fill-opacity:0.45098;stroke:none;"/>
  </g>
</mask>
<clipPath id="clip22">
  <rect x="0" y="0" width="177" height="40"/>
</clipPath>
<g id="surface68" clip-path="url(#clip22)">
<path style=" stroke:none;fill-rule:evenodd;fill:rgb(59.215686%,59.215686%,59.215686%);fill-opacity:1;" d="M 54.714844 16.960938 C 55.421875 17.203125 55.757812 17.707031 55.722656 18.480469 C 55.011719 18.242188 54.675781 17.734375 54.714844 16.960938 Z M 54.714844 16.960938 "/>
</g>
<mask id="mask22">
  <g filter="url(#alpha)">
<rect x="0" y="0" width="177" height="40" style="fill:rgb(0%,0%,0%);fill-opacity:0.164706;stroke:none;"/>
  </g>
</mask>
<clipPath id="clip23">
  <rect x="0" y="0" width="177" height="40"/>
</clipPath>
<g id="surface71" clip-path="url(#clip23)">
<path style=" stroke:none;fill-rule:evenodd;fill:rgb(75.686275%,75.686275%,75.686275%);fill-opacity:1;" d="M 91.019531 14.9375 C 91.507812 16.003906 91.679688 17.183594 91.527344 18.480469 C 90.347656 18.480469 89.171875 18.480469 87.996094 18.480469 C 88.886719 17.996094 89.894531 17.824219 91.019531 17.976562 C 91.019531 16.960938 91.019531 15.949219 91.019531 14.9375 Z M 91.019531 14.9375 "/>
</g>
<mask id="mask23">
  <g filter="url(#alpha)">
<rect x="0" y="0" width="177" height="40" style="fill:rgb(0%,0%,0%);fill-opacity:0.658824;stroke:none;"/>
  </g>
</mask>
<clipPath id="clip24">
  <rect x="0" y="0" width="177" height="40"/>
</clipPath>
<g id="surface74" clip-path="url(#clip24)">
<path style=" stroke:none;fill-rule:evenodd;fill:rgb(60.784314%,60.784314%,60.784314%);fill-opacity:1;" d="M 146.492188 17.976562 C 147.5 17.976562 148.003906 18.480469 148.003906 19.492188 C 147.332031 19.15625 146.828125 18.648438 146.492188 17.976562 Z M 146.492188 17.976562 "/>
</g>
<mask id="mask24">
  <g filter="url(#alpha)">
<rect x="0" y="0" width="177" height="40" style="fill:rgb(0%,0%,0%);fill-opacity:0.933333;stroke:none;"/>
  </g>
</mask>
<clipPath id="clip25">
  <rect x="0" y="0" width="177" height="40"/>
</clipPath>
<g id="surface77" clip-path="url(#clip25)">
<path style=" stroke:none;fill-rule:evenodd;fill:rgb(50.196078%,50.196078%,50.196078%);fill-opacity:1;" d="M 51.183594 18.480469 C 52.164062 18.75 52.667969 19.425781 52.695312 20.507812 C 51.953125 20.03125 51.449219 19.355469 51.183594 18.480469 Z M 51.183594 18.480469 "/>
</g>
<mask id="mask25">
  <g filter="url(#alpha)">
<rect x="0" y="0" width="177" height="40" style="fill:rgb(0%,0%,0%);fill-opacity:0.407843;stroke:none;"/>
  </g>
</mask>
<clipPath id="clip26">
  <rect x="0" y="0" width="177" height="40"/>
</clipPath>
<g id="surface80" clip-path="url(#clip26)">
<path style=" stroke:none;fill-rule:evenodd;fill:rgb(62.745098%,62.745098%,62.745098%);fill-opacity:1;" d="M 55.722656 18.480469 C 56.429688 18.71875 56.769531 19.226562 56.730469 20 C 56.023438 19.761719 55.683594 19.253906 55.722656 18.480469 Z M 55.722656 18.480469 "/>
</g>
<mask id="mask26">
  <g filter="url(#alpha)">
<rect x="0" y="0" width="177" height="40" style="fill:rgb(0%,0%,0%);fill-opacity:0.921569;stroke:none;"/>
  </g>
</mask>
<clipPath id="clip27">
  <rect x="0" y="0" width="177" height="40"/>
</clipPath>
<g id="surface83" clip-path="url(#clip27)">
<path style=" stroke:none;fill-rule:evenodd;fill:rgb(50.980392%,50.980392%,50.980392%);fill-opacity:1;" d="M 55.722656 25.570312 C 56.703125 25.839844 57.207031 26.515625 57.234375 27.59375 C 56.492188 27.121094 55.988281 26.445312 55.722656 25.570312 Z M 55.722656 25.570312 "/>
</g>
<mask id="mask27">
  <g filter="url(#alpha)">
<rect x="0" y="0" width="177" height="40" style="fill:rgb(0%,0%,0%);fill-opacity:0.505882;stroke:none;"/>
  </g>
</mask>
<clipPath id="clip28">
  <rect x="0" y="0" width="177" height="40"/>
</clipPath>
<g id="surface86" clip-path="url(#clip28)">
<path style=" stroke:none;fill-rule:evenodd;fill:rgb(50.980392%,50.980392%,50.980392%);fill-opacity:1;" d="M 124.304688 28.609375 C 123.96875 28.269531 123.632812 27.933594 123.292969 27.59375 C 123.4375 27.195312 123.691406 26.859375 124.050781 26.582031 C 124.296875 27.238281 124.382812 27.914062 124.304688 28.609375 Z M 124.304688 28.609375 "/>
</g>
<mask id="mask28">
  <g filter="url(#alpha)">
<rect x="0" y="0" width="177" height="40" style="fill:rgb(0%,0%,0%);fill-opacity:0.627451;stroke:none;"/>
  </g>
</mask>
<clipPath id="clip29">
  <rect x="0" y="0" width="177" height="40"/>
</clipPath>
<g id="surface89" clip-path="url(#clip29)">
<path style=" stroke:none;fill-rule:evenodd;fill:rgb(56.862745%,60.784314%,92.941176%);fill-opacity:1;" d="M 32.527344 29.621094 C 32.464844 31.035156 31.792969 32.046875 30.507812 32.660156 C 30.988281 31.503906 31.660156 30.492188 32.527344 29.621094 Z M 32.527344 29.621094 "/>
</g>
<mask id="mask29">
  <g filter="url(#alpha)">
<rect x="0" y="0" width="177" height="40" style="fill:rgb(0%,0%,0%);fill-opacity:0.835294;stroke:none;"/>
  </g>
</mask>
<clipPath id="clip30">
  <rect x="0" y="0" width="177" height="40"/>
</clipPath>
<g id="surface92" clip-path="url(#clip30)">
<path style=" stroke:none;fill-rule:evenodd;fill:rgb(45.882353%,50.196078%,90.980392%);fill-opacity:1;" d="M 4.789062 32.660156 C 6.464844 33.109375 7.976562 33.785156 9.328125 34.683594 C 8.65625 34.683594 7.984375 34.683594 7.3125 34.683594 C 6.222656 34.367188 5.382812 33.691406 4.789062 32.660156 Z M 4.789062 32.660156 "/>
</g>
<mask id="mask30">
  <g filter="url(#alpha)">
<rect x="0" y="0" width="177" height="40" style="fill:rgb(0%,0%,0%);fill-opacity:0.501961;stroke:none;"/>
  </g>
</mask>
<clipPath id="clip31">
  <rect x="0" y="0" width="177" height="40"/>
</clipPath>
<g id="surface95" clip-path="url(#clip31)">
<path style=" stroke:none;fill-rule:evenodd;fill:rgb(64.313725%,67.843137%,94.117647%);fill-opacity:1;" d="M 27.988281 34.175781 C 27.820312 34.515625 27.652344 34.851562 27.484375 35.191406 C 20.757812 35.191406 14.035156 35.191406 7.3125 35.191406 C 7.3125 35.019531 7.3125 34.851562 7.3125 34.683594 C 7.984375 34.683594 8.65625 34.683594 9.328125 34.683594 C 15.574219 34.832031 21.792969 34.664062 27.988281 34.175781 Z M 27.988281 34.175781 "/>
</g>
</defs>
<g id="surface1">
<path style=" stroke:none;fill-rule:evenodd;fill:rgb(10.196078%,10.196078%,10.196078%);fill-opacity:1;" d="M 126.824219 28.609375 C 125.984375 28.609375 125.144531 28.609375 124.304688 28.609375 C 124.382812 27.914062 124.296875 27.238281 124.050781 26.582031 C 123.691406 26.859375 123.4375 27.195312 123.292969 27.59375 C 122.371094 28.808594 121.109375 29.3125 119.511719 29.113281 C 113.574219 28.328125 111.390625 24.953125 112.957031 18.988281 C 113.097656 18.523438 113.347656 18.1875 113.714844 17.976562 C 114.421875 17.734375 114.757812 17.230469 114.722656 16.457031 C 115.492188 16.492188 115.996094 16.15625 116.234375 15.441406 C 118.648438 14.101562 121 14.269531 123.292969 15.949219 C 123.230469 16.394531 123.398438 16.730469 123.800781 16.960938 C 124.300781 13.941406 124.46875 10.90625 124.304688 7.847656 C 125.144531 7.847656 125.984375 7.847656 126.824219 7.847656 C 126.824219 14.769531 126.824219 21.6875 126.824219 28.609375 Z M 119.261719 17.976562 C 122.4375 18.207031 123.867188 19.898438 123.546875 23.039062 C 121.808594 26 119.621094 26.339844 116.992188 24.050781 C 115.894531 21.351562 116.652344 19.328125 119.261719 17.976562 Z M 119.261719 17.976562 "/>
<use xlink:href="#surface5" mask="url(#mask0)"/>
<use xlink:href="#surface8" mask="url(#mask1)"/>
<path style=" stroke:none;fill-rule:evenodd;fill:rgb(5.882353%,5.882353%,5.882353%);fill-opacity:1;" d="M 51.6875 12.40625 C 51.652344 13.179688 51.988281 13.683594 52.695312 13.925781 C 52.660156 14.695312 52.996094 15.203125 53.707031 15.441406 C 53.667969 16.214844 54.003906 16.722656 54.714844 16.960938 C 54.675781 17.734375 55.011719 18.242188 55.722656 18.480469 C 55.683594 19.253906 56.023438 19.761719 56.730469 20 C 57.433594 20.707031 57.9375 21.550781 58.242188 22.53125 C 58.386719 22.929688 58.636719 23.269531 59 23.542969 C 59.253906 18.652344 59.335938 13.757812 59.253906 8.859375 C 60.261719 8.859375 61.269531 8.859375 62.277344 8.859375 C 62.277344 15.441406 62.277344 22.023438 62.277344 28.609375 C 60.347656 28.894531 58.664062 28.558594 57.234375 27.59375 C 57.207031 26.515625 56.703125 25.839844 55.722656 25.570312 C 54.5 24.003906 53.492188 22.316406 52.695312 20.507812 C 52.667969 19.425781 52.164062 18.75 51.183594 18.480469 C 50.378906 17.367188 49.707031 16.1875 49.167969 14.9375 C 48.921875 14.445312 48.667969 13.9375 48.410156 13.417969 C 48.160156 18.476562 48.074219 23.542969 48.15625 28.609375 C 46.980469 28.609375 45.804688 28.609375 44.628906 28.609375 C 44.628906 21.855469 44.628906 15.105469 44.628906 8.355469 C 48.34375 7.523438 50.695312 8.875 51.6875 12.40625 Z M 51.6875 12.40625 "/>
<use xlink:href="#surface11" mask="url(#mask2)"/>
<use xlink:href="#surface14" mask="url(#mask3)"/>
<path style=" stroke:none;fill-rule:evenodd;fill:rgb(13.333333%,13.333333%,13.333333%);fill-opacity:1;" d="M 103.125 8.859375 C 105.96875 15.222656 108.828125 21.636719 111.695312 28.101562 C 110.210938 28.6875 108.699219 28.769531 107.15625 28.355469 C 106.703125 27.246094 106.199219 26.148438 105.644531 25.0625 C 102.789062 24.386719 99.929688 24.386719 97.074219 25.0625 C 96.40625 28.453125 94.390625 29.550781 91.019531 28.355469 C 93.9375 22.003906 96.792969 15.675781 99.59375 9.367188 C 100.710938 8.925781 101.886719 8.757812 103.125 8.859375 Z M 101.105469 13.925781 C 102.15625 16.140625 103.164062 18.417969 104.132812 20.757812 C 102.285156 21.097656 100.433594 21.097656 98.585938 20.757812 C 99.675781 18.570312 100.515625 16.289062 101.105469 13.925781 Z M 101.105469 13.925781 "/>
<path style=" stroke:none;fill-rule:evenodd;fill:rgb(19.607843%,19.607843%,19.607843%);fill-opacity:1;" d="M 155.570312 8.355469 C 159.089844 8.269531 159.933594 9.703125 158.089844 12.660156 C 154.515625 12.898438 153.675781 11.464844 155.570312 8.355469 Z M 155.570312 8.355469 "/>
<use xlink:href="#surface17" mask="url(#mask4)"/>
<use xlink:href="#surface20" mask="url(#mask5)"/>
<use xlink:href="#surface23" mask="url(#mask6)"/>
<path style=" stroke:none;fill-rule:evenodd;fill:rgb(24.705882%,32.156863%,87.843137%);fill-opacity:1;" d="M 9.328125 3.292969 C 15.382812 3.207031 21.433594 3.292969 27.484375 3.542969 C 29.375 4.347656 30.886719 5.613281 32.019531 7.339844 C 33.144531 14.363281 33.3125 21.449219 32.527344 28.609375 C 32.527344 28.945312 32.527344 29.28125 32.527344 29.621094 C 31.660156 30.492188 30.988281 31.503906 30.507812 32.660156 C 29.792969 33.378906 28.949219 33.886719 27.988281 34.175781 C 21.792969 34.664062 15.574219 34.832031 9.328125 34.683594 C 7.976562 33.785156 6.464844 33.109375 4.789062 32.660156 C 3.292969 31.714844 2.367188 30.367188 2.015625 28.609375 C 1.765625 22.363281 1.679688 16.121094 1.765625 9.875 C 2.96875 8.496094 3.976562 6.976562 4.789062 5.316406 C 6.523438 5.035156 8.035156 4.359375 9.328125 3.292969 Z M 9.328125 3.292969 "/>
<path style=" stroke:none;fill-rule:evenodd;fill:rgb(98.823529%,99.215686%,99.607843%);fill-opacity:1;" d="M 12.355469 10.378906 C 12.355469 16.117188 12.355469 21.855469 12.355469 27.59375 C 12.355469 27.765625 12.355469 27.933594 12.355469 28.101562 C 11.703125 28.222656 11.199219 28.050781 10.84375 27.59375 C 10.84375 21.855469 10.84375 16.117188 10.84375 10.378906 C 11.347656 10.378906 11.851562 10.378906 12.355469 10.378906 Z M 12.355469 10.378906 "/>
<path style=" stroke:none;fill-rule:evenodd;fill:rgb(45.490196%,50.980392%,90.980392%);fill-opacity:1;" d="M 10.335938 10.378906 C 9.855469 15.921875 9.6875 21.492188 9.832031 27.089844 C 9.25 21.777344 9.164062 16.375 9.582031 10.886719 C 9.773438 10.605469 10.027344 10.4375 10.335938 10.378906 Z M 10.335938 10.378906 "/>
<path style=" stroke:none;fill-rule:evenodd;fill:rgb(47.843137%,52.941176%,91.372549%);fill-opacity:1;" d="M 12.355469 10.378906 C 12.355469 10.210938 12.355469 10.042969 12.355469 9.875 C 12.859375 9.875 13.363281 9.875 13.867188 9.875 C 13.867188 15.949219 13.867188 22.023438 13.867188 28.101562 C 13.363281 28.101562 12.859375 28.101562 12.355469 28.101562 C 12.355469 27.933594 12.355469 27.765625 12.355469 27.59375 C 12.667969 27.539062 12.917969 27.371094 13.109375 27.089844 C 13.449219 21.6875 13.449219 16.285156 13.109375 10.886719 C 12.917969 10.605469 12.667969 10.4375 12.355469 10.378906 Z M 12.355469 10.378906 "/>
<path style=" stroke:none;fill-rule:evenodd;fill:rgb(77.254902%,79.607843%,96.470588%);fill-opacity:1;" d="M 12.355469 9.875 C 12.355469 10.042969 12.355469 10.210938 12.355469 10.378906 C 11.851562 10.378906 11.347656 10.378906 10.84375 10.378906 C 10.84375 16.117188 10.84375 21.855469 10.84375 27.59375 C 10.503906 27.425781 10.167969 27.257812 9.832031 27.089844 C 9.6875 21.492188 9.855469 15.921875 10.335938 10.378906 C 10.875 9.90625 11.546875 9.738281 12.355469 9.875 Z M 12.355469 9.875 "/>
<path style=" stroke:none;fill-rule:evenodd;fill:rgb(87.058824%,88.235294%,97.647059%);fill-opacity:1;" d="M 12.355469 10.378906 C 12.667969 10.4375 12.917969 10.605469 13.109375 10.886719 C 13.449219 16.285156 13.449219 21.6875 13.109375 27.089844 C 12.917969 27.371094 12.667969 27.539062 12.355469 27.59375 C 12.355469 21.855469 12.355469 16.117188 12.355469 10.378906 Z M 12.355469 10.378906 "/>
<use xlink:href="#surface26" mask="url(#mask7)"/>
<path style=" stroke:none;fill-rule:evenodd;fill:rgb(33.333333%,40%,89.019608%);fill-opacity:1;" d="M 25.464844 12.910156 C 25.296875 12.910156 25.128906 12.910156 24.960938 12.910156 C 24.261719 12.253906 23.507812 12.253906 22.691406 12.910156 C 22.277344 17.726562 22.359375 22.453125 22.945312 27.089844 C 23.851562 28.378906 24.691406 28.378906 25.464844 27.089844 C 25.632812 27.089844 25.800781 27.089844 25.96875 27.089844 C 25.96875 27.59375 25.96875 28.101562 25.96875 28.609375 C 24.75 28.710938 23.574219 28.542969 22.441406 28.101562 C 21.9375 22.710938 21.769531 17.308594 21.9375 11.898438 C 23.390625 11.640625 24.570312 11.976562 25.464844 12.910156 Z M 25.464844 12.910156 "/>
<use xlink:href="#surface29" mask="url(#mask8)"/>
<path style=" stroke:none;fill-rule:evenodd;fill:rgb(57.647059%,62.352941%,93.333333%);fill-opacity:1;" d="M 24.960938 12.910156 C 24.292969 12.824219 23.707031 12.992188 23.195312 13.417969 C 22.945312 17.972656 22.859375 22.527344 22.945312 27.089844 C 22.359375 22.453125 22.277344 17.726562 22.691406 12.910156 C 23.507812 12.253906 24.261719 12.253906 24.960938 12.910156 Z M 24.960938 12.910156 "/>
<path style=" stroke:none;fill-rule:evenodd;fill:rgb(73.72549%,76.470588%,95.686275%);fill-opacity:1;" d="M 24.960938 12.910156 C 25.128906 12.910156 25.296875 12.910156 25.464844 12.910156 C 25.464844 17.636719 25.464844 22.363281 25.464844 27.089844 C 24.691406 28.378906 23.851562 28.378906 22.945312 27.089844 C 22.859375 22.527344 22.945312 17.972656 23.195312 13.417969 C 23.707031 12.992188 24.292969 12.824219 24.960938 12.910156 Z M 24.960938 12.910156 "/>
<path style=" stroke:none;fill-rule:evenodd;fill:rgb(44.705882%,50.196078%,90.980392%);fill-opacity:1;" d="M 25.464844 12.910156 C 25.777344 12.96875 26.027344 13.136719 26.222656 13.417969 C 26.636719 18.0625 26.554688 22.621094 25.96875 27.089844 C 25.800781 27.089844 25.632812 27.089844 25.464844 27.089844 C 25.464844 22.363281 25.464844 17.636719 25.464844 12.910156 Z M 25.464844 12.910156 "/>
<use xlink:href="#surface32" mask="url(#mask9)"/>
<use xlink:href="#surface35" mask="url(#mask10)"/>
<path style=" stroke:none;fill-rule:evenodd;fill:rgb(6.666667%,6.666667%,6.666667%);fill-opacity:1;" d="M 91.019531 14.9375 C 91.019531 15.949219 91.019531 16.960938 91.019531 17.976562 C 89.894531 17.824219 88.886719 17.996094 87.996094 18.480469 C 86.949219 18.949219 86.359375 19.792969 86.230469 21.011719 C 85.980469 23.539062 85.894531 26.070312 85.980469 28.609375 C 84.96875 28.609375 83.960938 28.609375 82.953125 28.609375 C 82.953125 24.21875 82.953125 19.832031 82.953125 15.441406 C 83.792969 15.441406 84.632812 15.441406 85.472656 15.441406 C 85.363281 16.039062 85.53125 16.542969 85.980469 16.960938 C 86.285156 16.898438 86.453125 16.730469 86.484375 16.457031 C 87.640625 14.828125 89.15625 14.324219 91.019531 14.9375 Z M 91.019531 14.9375 "/>
<use xlink:href="#surface38" mask="url(#mask11)"/>
<path style=" stroke:none;fill-rule:evenodd;fill:rgb(10.980392%,10.980392%,10.980392%);fill-opacity:1;" d="M 148.003906 19.492188 C 148.003906 18.480469 147.5 17.976562 146.492188 17.976562 C 145.441406 17.960938 144.515625 18.296875 143.71875 18.988281 C 143.027344 22.148438 142.773438 25.355469 142.960938 28.609375 C 141.785156 28.609375 140.609375 28.609375 139.429688 28.609375 C 139.515625 25.734375 139.429688 22.863281 139.179688 20 C 137.71875 17.386719 136.207031 17.386719 134.640625 20 C 134.390625 22.863281 134.304688 25.734375 134.390625 28.609375 C 133.210938 28.609375 132.035156 28.609375 130.859375 28.609375 C 130.859375 24.21875 130.859375 19.832031 130.859375 15.441406 C 131.867188 15.441406 132.875 15.441406 133.882812 15.441406 C 133.804688 17.140625 134.144531 17.308594 134.894531 15.949219 C 137.476562 13.894531 139.996094 14.0625 142.457031 16.457031 C 145.808594 13.535156 148.75 13.875 151.28125 17.46875 C 151.9375 21.148438 152.191406 24.863281 152.039062 28.609375 C 150.695312 28.609375 149.347656 28.609375 148.003906 28.609375 C 148.003906 25.570312 148.003906 22.53125 148.003906 19.492188 Z M 148.003906 19.492188 "/>
<path style=" stroke:none;fill-rule:evenodd;fill:rgb(9.803922%,9.803922%,9.803922%);fill-opacity:1;" d="M 162.628906 28.609375 C 162.628906 24.21875 162.628906 19.832031 162.628906 15.441406 C 163.636719 15.441406 164.644531 15.441406 165.652344 15.441406 C 165.574219 17.140625 165.910156 17.308594 166.664062 15.949219 C 169.179688 13.867188 171.617188 14.035156 173.972656 16.457031 C 174.699219 20.449219 174.949219 24.5 174.730469 28.609375 C 173.554688 28.609375 172.378906 28.609375 171.199219 28.609375 C 171.285156 25.734375 171.199219 22.863281 170.949219 20 C 169.4375 17.300781 167.921875 17.300781 166.410156 20 C 166.160156 22.863281 166.074219 25.734375 166.15625 28.609375 C 164.980469 28.609375 163.804688 28.609375 162.628906 28.609375 Z M 162.628906 28.609375 "/>
<use xlink:href="#surface41" mask="url(#mask12)"/>
<path style=" stroke:none;fill-rule:evenodd;fill:rgb(7.058824%,7.058824%,7.058824%);fill-opacity:1;" d="M 70.347656 24.558594 C 71.777344 25.875 73.207031 25.875 74.632812 24.558594 C 75.320312 21.566406 75.570312 18.527344 75.390625 15.441406 C 76.398438 15.441406 77.40625 15.441406 78.414062 15.441406 C 78.414062 19.832031 78.414062 24.21875 78.414062 28.609375 C 77.113281 28.820312 76.019531 28.480469 75.136719 27.59375 C 72.308594 29.730469 69.617188 29.5625 67.070312 27.089844 C 66.824219 26.609375 66.742188 26.101562 66.816406 25.570312 C 66.816406 22.195312 66.816406 18.820312 66.816406 15.441406 C 67.824219 15.441406 68.832031 15.441406 69.84375 15.441406 C 69.679688 18.578125 69.847656 21.613281 70.347656 24.558594 Z M 70.347656 24.558594 "/>
<use xlink:href="#surface44" mask="url(#mask13)"/>
<use xlink:href="#surface47" mask="url(#mask14)"/>
<use xlink:href="#surface50" mask="url(#mask15)"/>
<use xlink:href="#surface53" mask="url(#mask16)"/>
<use xlink:href="#surface56" mask="url(#mask17)"/>
<use xlink:href="#surface59" mask="url(#mask18)"/>
<use xlink:href="#surface62" mask="url(#mask19)"/>
<use xlink:href="#surface65" mask="url(#mask20)"/>
<use xlink:href="#surface68" mask="url(#mask21)"/>
<use xlink:href="#surface71" mask="url(#mask22)"/>
<use xlink:href="#surface74" mask="url(#mask23)"/>
<path style=" stroke:none;fill-rule:evenodd;fill:rgb(70.588235%,73.333333%,95.294118%);fill-opacity:1;" d="M 16.390625 16.960938 C 17.515625 16.8125 18.523438 16.980469 19.414062 17.46875 C 18.574219 17.46875 17.734375 17.46875 16.894531 17.46875 C 16.894531 20.84375 16.894531 24.21875 16.894531 27.59375 C 17.734375 27.59375 18.574219 27.59375 19.414062 27.59375 C 18.523438 28.082031 17.515625 28.25 16.390625 28.101562 C 16.390625 24.386719 16.390625 20.675781 16.390625 16.960938 Z M 16.390625 16.960938 "/>
<path style=" stroke:none;fill-rule:evenodd;fill:rgb(90.196078%,91.372549%,98.431373%);fill-opacity:1;" d="M 19.414062 17.46875 C 19.414062 20.84375 19.414062 24.21875 19.414062 27.59375 C 18.574219 27.59375 17.734375 27.59375 16.894531 27.59375 C 16.894531 24.21875 16.894531 20.84375 16.894531 17.46875 C 17.734375 17.46875 18.574219 17.46875 19.414062 17.46875 Z M 19.414062 17.46875 "/>
<path style=" stroke:none;fill-rule:evenodd;fill:rgb(47.843137%,52.54902%,91.372549%);fill-opacity:1;" d="M 19.414062 27.59375 C 19.414062 24.21875 19.414062 20.84375 19.414062 17.46875 C 18.523438 16.980469 17.515625 16.8125 16.390625 16.960938 C 17.242188 15.816406 18.335938 15.644531 19.667969 16.457031 C 20.082031 20.257812 19.996094 23.972656 19.414062 27.59375 Z M 19.414062 27.59375 "/>
<use xlink:href="#surface77" mask="url(#mask24)"/>
<use xlink:href="#surface80" mask="url(#mask25)"/>
<use xlink:href="#surface83" mask="url(#mask26)"/>
<use xlink:href="#surface86" mask="url(#mask27)"/>
<use xlink:href="#surface89" mask="url(#mask28)"/>
<use xlink:href="#surface92" mask="url(#mask29)"/>
<use xlink:href="#surface95" mask="url(#mask30)"/>
</g>
</svg>
